<?xml version="1.0" standalone="no"?>
<!DOCTYPE svg PUBLIC "-//W3C//DTD SVG 20010904//EN"
 "http://www.w3.org/TR/2001/REC-SVG-20010904/DTD/svg10.dtd">
<svg version="1.0" xmlns="http://www.w3.org/2000/svg"
 width="512.000000pt" height="512.000000pt" viewBox="0 0 512.000000 512.000000"
 preserveAspectRatio="xMidYMid meet">
<metadata>
Created by potrace 1.15, written by Peter Selinger 2001-2017
</metadata>
<g transform="translate(0.000000,512.000000) scale(0.100000,-0.100000)"
fill="#FFFFFF" stroke="none">
<path d="M2310 5113 c-70 -5 -236 -32 -335 -54 -599 -134 -1155 -509 -1512
-1019 -224 -322 -369 -683 -439 -1100 -22 -131 -30 -520 -14 -658 54 -475 219
-884 514 -1277 102 -134 307 -347 436 -449 461 -367 1004 -556 1600 -556 518
0 982 142 1425 435 150 99 260 189 390 320 362 361 599 808 699 1315 72 364
62 759 -29 1120 -119 471 -350 869 -706 1216 -400 389 -918 634 -1479 698
-122 14 -416 19 -550 9z m74 -650 c-40 -126 -140 -433 -221 -683 l-149 -455
-722 -3 c-592 -2 -722 0 -722 11 0 28 149 309 222 417 297 446 770 769 1303
892 105 24 250 45 316 47 l47 1 -74 -227z m426 217 c642 -80 1226 -453 1562
-1000 48 -79 161 -299 173 -337 l6 -23 -750 0 -749 0 -21 63 c-121 371 -421
1299 -421 1302 0 9 114 5 200 -5z m1819 -1619 c49 -193 56 -258 56 -511 0
-256 -12 -343 -75 -565 -85 -300 -252 -609 -447 -827 -92 -102 -294 -289 -307
-285 -6 2 -117 332 -247 733 -216 662 -236 730 -221 741 9 7 283 206 607 442
527 383 591 426 598 408 4 -11 21 -72 36 -136z m-3518 -302 c318 -231 579
-423 579 -427 0 -3 -104 -327 -232 -719 l-231 -712 -26 19 c-103 73 -302 291
-398 435 -127 191 -197 330 -261 521 -89 264 -117 460 -109 759 4 164 10 223
32 325 27 128 53 220 62 220 3 0 266 -189 584 -421z m2032 -1475 c331 -240
610 -445 620 -454 18 -17 16 -20 -71 -73 -332 -205 -670 -310 -1047 -323 -292
-11 -487 17 -778 113 -169 55 -421 183 -535 271 l-24 19 608 441 c335 243 612
442 617 442 4 0 279 -196 610 -436z"/>
</g>
</svg>
